<svg xmlns="http://www.w3.org/2000/svg" viewBox="0 0 256 256" role="img">
<!-- Original geometric game art generated by scripts/generate_game_art.py; no source imagery embedded. -->
<defs>
<radialGradient id="g"><stop stop-color="#566b72" stop-opacity=".34"/><stop offset="1" stop-color="#20272b" stop-opacity=".96"/></radialGradient>
<pattern id="grid" width="18" height="18" patternUnits="userSpaceOnUse"><path d="M18 0H0V18" fill="none" stroke="#9db3b9" stroke-opacity=".08"/></pattern>
</defs>
<path d="M53 5h150l48 48v150l-48 48H53L5 203V53z" fill="url(#g)" stroke="#566b72" stroke-width="8"/>
<path d="M58 13h140l45 45v140l-45 45H58l-45-45V58z" fill="url(#grid)"/>
<g fill="none" stroke="#9db3b9" stroke-width="5" stroke-linecap="round" stroke-linejoin="round" opacity=".42"><path d="M54 85h148M54 171h148M72 56v144M184 56v144"/><circle cx="128" cy="128" r="32"/><path d="M128 83v90M83 128h90M96 96l64 64M160 96l-64 64"/></g>
<path d="M35 211h186" stroke="#566b72" stroke-width="22" opacity=".78"/>
<text x="128" y="218" fill="#e8f0f2" font-family="system-ui,sans-serif" font-size="16" font-weight="700" text-anchor="middle" letter-spacing="2">GUNNERY</text>
</svg>
