<svg xmlns="http://www.w3.org/2000/svg" viewBox="0 0 256 256" role="img">
<!-- Original geometric game art generated by scripts/generate_game_art.py; no source imagery embedded. -->
<defs>
<radialGradient id="g"><stop stop-color="#566b72" stop-opacity=".34"/><stop offset="1" stop-color="#20272b" stop-opacity=".96"/></radialGradient>
<pattern id="grid" width="18" height="18" patternUnits="userSpaceOnUse"><path d="M18 0H0V18" fill="none" stroke="#9db3b9" stroke-opacity=".08"/></pattern>
</defs>
<path d="M128 5l123 59v128l-123 59L5 192V64z" fill="url(#g)" stroke="#566b72" stroke-width="8"/>
<path d="M128 13l115 56v118l-115 56L13 187V69z" fill="url(#grid)"/>
<g fill="none" stroke="#9db3b9" stroke-width="5" stroke-linecap="round" stroke-linejoin="round" opacity=".42"><path d="M52 82h64q16 0 16 16v60q0 16 16 16h56M52 174h35q16 0 16-16v-34q0-16 16-16h85"/><circle cx="132" cy="128" r="18"/><path d="M132 110v36M114 128h36"/></g>
<path d="M35 211h186" stroke="#566b72" stroke-width="22" opacity=".78"/>
<text x="128" y="218" fill="#e8f0f2" font-family="system-ui,sans-serif" font-size="16" font-weight="700" text-anchor="middle" letter-spacing="2">SPRINKLERS</text>
</svg>
